<svg xmlns="http://www.w3.org/2000/svg" width="22.54" height="26.092" viewBox="0 0 22.54 26.092">
  <g id="Group_55" data-name="Group 55" transform="translate(-32.022 -639.219)">
    <path id="Path_445" data-name="Path 445" d="M312.47,1520.562s-4.759.81-4.793-4.133,0-9.645,0-9.645a4.222,4.222,0,0,1,1.431-2.692c1.431-1.432,7.43-7.4,7.43-7.4s.613-1.057,3.306-1.125,5.487,0,5.487,0a3.656,3.656,0,0,1,3.817,3.851c.1,4.022,0,17.007,0,17.007a3.865,3.865,0,0,1-4.192,4.133c-4.431-.042-11.111,0-11.111,0" transform="translate(-275.139 -855.818)" fill="none" stroke="#fff" stroke-linecap="round" stroke-width="1"/>
    <path id="Path_446" data-name="Path 446" d="M307.662,1507.454s.56-1.909,3.185-1.773,5.385.171,6.408-1.943-1.045-8.16,3.318-8.125" transform="translate(-275.139 -855.875)" fill="none" stroke="#fff" stroke-width="1"/>
    <g id="Ellipse_341" data-name="Ellipse 341" transform="translate(46.94 642.42)" fill="none" stroke="#fff" stroke-width="1">
      <circle cx="1.476" cy="1.476" r="1.476" stroke="none"/>
      <circle cx="1.476" cy="1.476" r="0.976" fill="none"/>
    </g>
    <g id="Ellipse_342" data-name="Ellipse 342" transform="translate(44.972 649.307)" fill="none" stroke="#fff" stroke-width="1">
      <circle cx="1.476" cy="1.476" r="1.476" stroke="none"/>
      <circle cx="1.476" cy="1.476" r="0.976" fill="none"/>
    </g>
    <g id="Ellipse_343" data-name="Ellipse 343" transform="translate(48.415 652.598)" fill="none" stroke="#fff" stroke-width="1">
      <ellipse cx="1.722" cy="1.798" rx="1.722" ry="1.798" stroke="none"/>
      <ellipse cx="1.722" cy="1.798" rx="1.222" ry="1.298" fill="none"/>
    </g>
    <line id="Line_11" data-name="Line 11" x2="7.686" transform="translate(35.2 653.05)" fill="none" stroke="#fff" stroke-linecap="round" stroke-width="1"/>
    <line id="Line_12" data-name="Line 12" x2="10.624" transform="translate(35.2 655.085)" fill="none" stroke="#fff" stroke-linecap="round" stroke-width="1"/>
    <line id="Line_13" data-name="Line 13" x2="10.624" transform="translate(35.2 657.119)" fill="none" stroke="#fff" stroke-linecap="round" stroke-width="1"/>
    <line id="Line_14" data-name="Line 14" x2="10.624" transform="translate(35.2 659.154)" fill="none" stroke="#fff" stroke-linecap="round" stroke-width="1"/>
    <line id="Line_15" data-name="Line 15" x2="3.843" transform="translate(46.728 661.64)" fill="none" stroke="#fff" stroke-linecap="round" stroke-width="1"/>
    <path id="Path_447" data-name="Path 447" d="M389.919,1544.849h-1.5l-2.3,2.239" transform="translate(-335.863 -893.98)" fill="none" stroke="#fff" stroke-linejoin="round" stroke-width="1"/>
    <path id="Path_448" data-name="Path 448" d="M393.165,1551h-1.013l-1.835,1.937" transform="translate(-339.108 -898.741)" fill="none" stroke="#fff" stroke-linejoin="round" stroke-width="1"/>
    <path id="Path_449" data-name="Path 449" d="M382.209,1539h-4.941l-1.669,1.521" transform="translate(-328.153 -889.453)" fill="none" stroke="#fff" stroke-linejoin="round" stroke-width="1"/>
    <path id="Path_450" data-name="Path 450" d="M371.615,1534.6l1.567-1.536h1.846" transform="translate(-324.635 -884.856)" fill="none" stroke="#fff" stroke-linecap="round" stroke-linejoin="round" stroke-width="1"/>
    <path id="Path_451" data-name="Path 451" d="M392.684,1533.059h2.156" transform="translate(-340.941 -884.856)" fill="none" stroke="#fff" stroke-linecap="round" stroke-width="1"/>
    <path id="Path_452" data-name="Path 452" d="M383.735,1519.055h-3.309l-2.207-1.951" transform="translate(-329.678 -872.159)" fill="none" stroke="#fff" stroke-linejoin="round" stroke-width="1"/>
    <path id="Path_453" data-name="Path 453" d="M386.812,1513.935h-2.687l-2.017-1.649" transform="translate(-332.756 -868.39)" fill="none" stroke="#fff" stroke-linejoin="round" stroke-width="1"/>
  </g>
</svg>
