<svg xmlns="http://www.w3.org/2000/svg" width="23" height="22" viewBox="0 0 23 22">
  <g id="Group_54" data-name="Group 54" transform="translate(-35 -695)">
    <g id="Polygon_1" data-name="Polygon 1" transform="translate(35 695)" fill="none">
      <path d="M9.728,3.391a2,2,0,0,1,3.545,0l8.2,15.683A2,2,0,0,1,19.7,22H3.3A2,2,0,0,1,1.53,19.073Z" stroke="none"/>
      <path d="M 11.5 3.317287445068359 C 11.12075996398926 3.317287445068359 10.78946018218994 3.517936706542969 10.61378002166748 3.854026794433594 L 2.415990829467773 19.53674697875977 C 2.180400848388672 19.98743629455566 2.359100341796875 20.37313652038574 2.446859359741211 20.51803588867188 C 2.534629821777344 20.6629467010498 2.793659210205078 20.99999618530273 3.302219390869141 20.99999618530273 L 19.69778060913086 20.99999618530273 C 20.20634078979492 20.99999618530273 20.46537017822266 20.6629467010498 20.55314064025879 20.51803588867188 C 20.64089965820312 20.37313652038574 20.81959915161133 19.9874267578125 20.58400917053223 19.5367374420166 L 12.38623046875 3.854036331176758 C 12.21053981781006 3.517936706542969 11.87924003601074 3.317287445068359 11.5 3.317287445068359 M 11.5 2.317287445068359 C 12.19917774200439 2.317287445068359 12.89835453033447 2.675117492675781 13.27245044708252 3.390777587890625 L 21.47023963928223 19.073486328125 C 22.16629981994629 20.40508651733398 21.20033073425293 21.99999618530273 19.69778060913086 21.99999618530273 L 3.302219390869141 21.99999618530273 C 1.79966926574707 21.99999618530273 0.8337001800537109 20.40508651733398 1.529769897460938 19.073486328125 L 9.72754955291748 3.390777587890625 C 10.10164546966553 2.675117492675781 10.80082225799561 2.317287445068359 11.5 2.317287445068359 Z" stroke="none" fill="#fff"/>
    </g>
    <text id="_" data-name="!" transform="translate(45 713)" fill="#fff" font-size="12" font-family="Poppins-Regular, Poppins"><tspan x="0" y="0">!</tspan></text>
  </g>
</svg>
