<svg xmlns="http://www.w3.org/2000/svg" width="24" height="24" viewBox="0 0 24 24">
  <g id="Icon_ionic-ios-help-circle-outline" data-name="Icon ionic-ios-help-circle-outline" transform="translate(-3.375 -3.375)">
    <path id="Path_460" data-name="Path 460" d="M15.375,4.99a10.381,10.381,0,1,1-7.344,3.04,10.316,10.316,0,0,1,7.344-3.04m0-1.615a12,12,0,1,0,12,12,12,12,0,0,0-12-12Z" fill="#ccd2e3"/>
    <path id="Path_461" data-name="Path 461" d="M17.233,11.25c2.163,0,3.652,1.2,3.652,2.925a2.822,2.822,0,0,1-1.621,2.562c-1,.583-1.344,1.01-1.344,1.748v.456h-2l-.017-.5a2.4,2.4,0,0,1,1.362-2.538c.975-.583,1.385-.952,1.385-1.667A1.4,1.4,0,0,0,17.094,13a1.459,1.459,0,0,0-1.546,1.419H13.5C13.54,12.56,14.913,11.25,17.233,11.25Zm-1.517,9.888a1.239,1.239,0,1,1,1.235,1.188A1.208,1.208,0,0,1,15.715,21.138Z" transform="translate(-1.817 -1.413)" fill="#ccd2e3"/>
  </g>
</svg>
