<svg xmlns="http://www.w3.org/2000/svg" width="25.242" height="21.016" viewBox="0 0 25.242 21.016">
  <g id="Icon_feather-camera" data-name="Icon feather-camera" transform="translate(-0.5 -3.5)">
    <path id="Path_458" data-name="Path 458" d="M24.742,21.4a2.113,2.113,0,0,1-2.113,2.113H3.613A2.113,2.113,0,0,1,1.5,21.4V9.782A2.113,2.113,0,0,1,3.613,7.669H7.839L9.952,4.5H16.29L18.4,7.669h4.226a2.113,2.113,0,0,1,2.113,2.113Z" fill="none" stroke="#fb6340" stroke-linecap="round" stroke-linejoin="round" stroke-width="2"/>
    <path id="Path_459" data-name="Path 459" d="M20.452,17.726A4.226,4.226,0,1,1,16.226,13.5,4.226,4.226,0,0,1,20.452,17.726Z" transform="translate(-3.105 -2.661)" fill="none" stroke="#fb6340" stroke-linecap="round" stroke-linejoin="round" stroke-width="2"/>
  </g>
</svg>
