<svg xmlns="http://www.w3.org/2000/svg" width="21.895" height="18.763" viewBox="0 0 21.895 18.763">
  <path id="Icon_ionic-md-eye-off" data-name="Icon ionic-md-eye-off" d="M13.2,8.448a4.963,4.963,0,0,1,4.979,4.94,4.752,4.752,0,0,1-.357,1.808l2.907,2.883a11.681,11.681,0,0,0,3.415-4.691A11.791,11.791,0,0,0,9.227,6.669L11.377,8.8A4.923,4.923,0,0,1,13.2,8.448ZM3.247,5.756,5.519,8.008l.459.454A11.625,11.625,0,0,0,2.25,13.388a11.809,11.809,0,0,0,15.308,6.577l.42.415L20.9,23.263l1.266-1.256L4.507,4.5Zm5.5,5.458,1.544,1.529a2.8,2.8,0,0,0-.078.64A2.971,2.971,0,0,0,13.2,16.344a2.808,2.808,0,0,0,.645-.078L15.389,17.8a4.953,4.953,0,0,1-7.168-4.417A4.881,4.881,0,0,1,8.749,11.214Zm4.29-.767,3.137,3.112.02-.156a2.971,2.971,0,0,0-2.985-2.961Z" transform="translate(-2.25 -4.5)" fill="#8f8f8f"/>
</svg>
