<svg id="Layer_2" data-name="Layer 2" xmlns="http://www.w3.org/2000/svg" xmlns:xlink="http://www.w3.org/1999/xlink" width="70.773" height="105.262" viewBox="0 0 70.773 105.262">
  <defs>
    <linearGradient id="linear-gradient" y1="0.5" x2="1" y2="0.5" gradientUnits="objectBoundingBox">
      <stop offset="0" stop-color="#fff33b"/>
      <stop offset="0.04" stop-color="#fee72e"/>
      <stop offset="0.12" stop-color="#fed51b"/>
      <stop offset="0.2" stop-color="#fdca10"/>
      <stop offset="0.28" stop-color="#fdc70c"/>
      <stop offset="0.67" stop-color="#f3903f"/>
      <stop offset="0.89" stop-color="#ed683c"/>
      <stop offset="1" stop-color="#e93e3a"/>
    </linearGradient>
    <linearGradient id="linear-gradient-2" x1="0" y1="0.5" x2="1" y2="0.5" xlink:href="#linear-gradient"/>
    <linearGradient id="linear-gradient-3" x1="1.288" y1="0.743" x2="2.277" y2="0.743" gradientUnits="objectBoundingBox">
      <stop offset="0" stop-color="#2484c6"/>
      <stop offset="0.1" stop-color="#347dbe"/>
      <stop offset="0.33" stop-color="#5070b1"/>
      <stop offset="0.56" stop-color="#6566a7"/>
      <stop offset="0.78" stop-color="#7161a1"/>
      <stop offset="1" stop-color="#755f9f"/>
    </linearGradient>
    <linearGradient id="linear-gradient-4" x1="2.076" y1="0.798" x2="3.058" y2="0.798" gradientUnits="objectBoundingBox">
      <stop offset="0" stop-color="#2484c6"/>
      <stop offset="1" stop-color="#755f9f"/>
    </linearGradient>
  </defs>
  <g id="Layer_2-2" data-name="Layer 2" transform="translate(0 0)">
    <path id="Path_325" data-name="Path 325" d="M55.191,18.613a13.226,13.226,0,0,1-2.5,7.305c-2.248,3.133-5.76,7.614-8.141,8.654-3.758,1.637-17.076,1.735-21.691,14.392-2.409,14.6,9.265,18.263,17.329,16.949h.042c.337-.056.667-.119.99-.2,0,0-13.212,9.665-29.5-.639S-.328,34.361,3.753,29.2s17.61-17.5,23.18-24.374C33-1.013,45.28-2.193,51.517,4.831h0C54.172,7.845,55.718,12.34,55.191,18.613Z" transform="translate(-0.031 0.004)" fill="url(#linear-gradient)"/>
    <path id="Path_326" data-name="Path 326" d="M61.292,20.5a13.226,13.226,0,0,1-2.5,7.305c-2.248,3.133-5.76,7.614-8.141,8.654C46.893,38.1,33.575,38.194,28.96,50.852c-2.409,14.6,9.265,18.263,17.329,16.949-28.8,5.409-28.469-18.263-22.583-30.7C29.677,24.539,56.9,6.34,56.9,6.34l.7.379h0C60.274,9.733,61.819,14.228,61.292,20.5Z" transform="translate(-6.133 -1.884)" fill="url(#linear-gradient-2)"/>
    <path id="Path_327" data-name="Path 327" d="M21.421,101.416a13.191,13.191,0,0,1,2.655-7.249C26.387,91.083,30,86.679,32.4,85.689c3.793-1.552,17.111-1.363,22-13.915C57.132,57.227,45.535,53.3,37.45,54.46h-.042c-.344.049-.7.105-1,.176,0,0,13.423-9.377,29.5,1.285S77.27,86.883,73.056,91.947s-17.989,17.118-23.721,23.882c-6.2,5.711-18.495,6.61-24.585-.534h0C22.2,112.2,20.754,107.674,21.421,101.416Z" transform="translate(-6.348 -15.122)" fill="url(#linear-gradient-3)"/>
    <path id="Path_328" data-name="Path 328" d="M21.421,102.69a13.191,13.191,0,0,1,2.655-7.249C26.387,92.358,30,87.954,32.4,86.963c3.793-1.552,17.111-1.363,22-13.915C57.132,58.5,45.535,54.575,37.451,55.734c28.932-4.776,28.1,18.9,21.9,31.18-6.237,12.433-33.842,30.035-33.842,30.035l-.7-.393h0C22.2,113.472,20.754,108.949,21.421,102.69Z" transform="translate(-6.348 -16.396)" fill="url(#linear-gradient-4)"/>
  </g>
</svg>
