<svg id="vuesax_outline_search-status" data-name="vuesax/outline/search-status" xmlns="http://www.w3.org/2000/svg" width="20.899" height="20.899" viewBox="0 0 20.899 20.899">
  <g id="search-status">
    <path id="Vector" d="M8.49,16.98A8.49,8.49,0,0,1,8.49,0a.658.658,0,0,1,.653.653.658.658,0,0,1-.653.653A7.184,7.184,0,1,0,15.674,8.49a.653.653,0,1,1,1.306,0A8.5,8.5,0,0,1,8.49,16.98Z" transform="translate(1.088 1.088)" fill="#fff"/>
    <path id="Vector-2" data-name="Vector" d="M5.878,1.306H.653A.658.658,0,0,1,0,.653.658.658,0,0,1,.653,0H5.878a.658.658,0,0,1,.653.653A.658.658,0,0,1,5.878,1.306Z" transform="translate(11.538 3.701)" fill="#fff"/>
    <path id="Vector-3" data-name="Vector" d="M3.265,1.306H.653A.658.658,0,0,1,0,.653.658.658,0,0,1,.653,0H3.265a.658.658,0,0,1,.653.653A.658.658,0,0,1,3.265,1.306Z" transform="translate(11.538 6.313)" fill="#fff"/>
    <path id="Vector-4" data-name="Vector" d="M1.889,4.171a1.429,1.429,0,0,1-.2-.017C1.279,4.1.539,3.823.121,2.578A1.973,1.973,0,0,1,.339.775,1.978,1.978,0,0,1,1.984,0a2.022,2.022,0,0,1,1.9.94,2.051,2.051,0,0,1-.27,2.107A2.1,2.1,0,0,1,1.889,4.171Zm-.522-2c.148.453.357.679.5.7s.4-.148.671-.54c.253-.374.27-.644.209-.766s-.3-.253-.758-.253a.7.7,0,0,0-.583.235A.7.7,0,0,0,1.366,2.168Z" transform="translate(15.667 15.674)" fill="#fff"/>
    <path id="Vector-5" data-name="Vector" d="M0,0H20.9V20.9H0Z" fill="none" opacity="0"/>
  </g>
</svg>
